solid csg.js
facet normal -1 0 0
outer loop
vertex -10 -10 -10
vertex -10 -10 10
vertex -10 10 10
endloop
endfacet
facet normal -1 0 0
outer loop
vertex -10 -10 -10
vertex -10 10 10
vertex -10 10 -10
endloop
endfacet
facet normal 1 0 0
outer loop
vertex 10 -10 -10
vertex 10 10 -10
vertex 10 10 10
endloop
endfacet
facet normal 1 0 0
outer loop
vertex 10 -10 -10
vertex 10 10 10
vertex 10 -10 10
endloop
endfacet
facet normal 0 -1 0
outer loop
vertex -10 -10 -10
vertex 10 -10 -10
vertex 10 -10 10
endloop
endfacet
facet normal 0 -1 0
outer loop
vertex -10 -10 -10
vertex 10 -10 10
vertex -10 -10 10
endloop
endfacet
facet normal 0 1 0
outer loop
vertex -10 10 -10
vertex -10 10 10
vertex 10 10 10
endloop
endfacet
facet normal 0 1 0
outer loop
vertex -10 10 -10
vertex 10 10 10
vertex 10 10 -10
endloop
endfacet
facet normal 0 0 -1
outer loop
vertex -10 -10 -10
vertex -10 10 -10
vertex 10 10 -10
endloop
endfacet
facet normal 0 0 -1
outer loop
vertex -10 -10 -10
vertex 10 10 -10
vertex 10 -10 -10
endloop
endfacet
facet normal 0 0 1
outer loop
vertex -10 -10 10
vertex 10 -10 10
vertex 10 10 10
endloop
endfacet
facet normal 0 0 1
outer loop
vertex -10 -10 10
vertex 10 10 10
vertex -10 10 10
endloop
endfacet
endsolid csg.js
